<svg width="12" height="10" viewBox="0 0 12 10" fill="none" xmlns="http://www.w3.org/2000/svg">
<g id="&#240;&#159;&#166;&#134; icon &#34;celsius&#34;">
<path id="Vector" d="M0.0576935 1.98718C0.0576935 1.45299 0.250001 0.99359 0.623932 0.619658C1.00855 0.235043 1.45727 0.053419 1.99145 0.053419C2.51496 0.053419 2.97436 0.245726 3.34829 0.619658C3.72222 1.00427 3.91453 1.45299 3.91453 1.98718C3.91453 2.52137 3.72222 2.98077 3.34829 3.3547C2.97436 3.73932 2.51496 3.92094 1.99145 3.92094C1.45727 3.92094 0.997864 3.72863 0.623932 3.3547C0.250001 2.98077 0.0576935 2.52137 0.0576935 1.98718ZM0.997865 1.98718C0.997865 2.26496 1.09402 2.5 1.28633 2.70299C1.48932 2.90598 1.72436 3.00214 2.00214 3.00214C2.27992 3.00214 2.51496 2.90598 2.71795 2.70299C2.92094 2.5 3.0171 2.26496 3.0171 1.98718C3.0171 1.7094 2.92094 1.47436 2.71795 1.27137C2.51496 1.06838 2.27992 0.972222 2.00214 0.972222C1.72436 0.972222 1.48932 1.06838 1.28633 1.27137C1.09402 1.46368 0.997865 1.7094 0.997865 1.98718ZM5.15385 6.7094C5.15385 7.53205 5.37821 8.25855 5.83761 8.89957C6.07265 9.23077 6.40385 9.49786 6.8312 9.70086C7.24786 9.89316 7.72863 10 8.26282 10C9.82265 10 10.8056 9.40171 11.2009 8.21581C11.2436 8.06624 11.2222 7.91667 11.1368 7.77778C11.0513 7.63889 10.9338 7.5641 10.7842 7.53205C10.6346 7.48932 10.485 7.51068 10.3568 7.60684C10.2286 7.69231 10.1432 7.80983 10.1111 7.97009C10.1111 7.98077 10.1111 7.99145 10.1004 8.0235L10.0791 8.09829C9.96154 8.30128 9.80128 8.46154 9.59829 8.57906C9.2671 8.78205 8.82906 8.87821 8.28419 8.87821C7.95299 8.87821 7.65385 8.82479 7.39744 8.70727C6.97009 8.52564 6.67094 8.20513 6.48932 7.75641C6.3718 7.46795 6.30769 7.11538 6.30769 6.72009V3.27991C6.30769 3.11966 6.31838 2.9594 6.33975 2.79915C6.38248 2.39316 6.54274 2.01923 6.82051 1.68803C7.13034 1.3141 7.6218 1.13248 8.29487 1.13248C8.85043 1.13248 9.28846 1.22863 9.60898 1.42094C9.82265 1.54915 9.98291 1.7094 10.0897 1.90171C10.1004 1.92308 10.1004 1.95513 10.1111 1.98718C10.1218 2.01923 10.1218 2.0406 10.1218 2.05128C10.1645 2.20085 10.25 2.30769 10.3675 2.3718C10.4957 2.44658 10.6346 2.45727 10.7949 2.42521C10.9444 2.39316 11.062 2.30769 11.1474 2.17949C11.2329 2.05128 11.2543 1.91239 11.2115 1.75214V1.74145L11.1261 1.49573C11.0727 1.37821 10.9765 1.21795 10.8269 1.03633C10.688 0.844017 10.5171 0.694444 10.3462 0.566239C10.1218 0.405983 9.83333 0.277778 9.47009 0.160257C9.10684 0.0534194 8.71154 0 8.28419 0C7.73932 0 7.26923 0.0961543 6.84188 0.288462C6.42522 0.48077 6.09402 0.737179 5.86966 1.06838C5.41026 1.69872 5.17521 2.4359 5.17521 3.27991V6.7094H5.15385Z" fill="black"/>
</g>
</svg>
