<svg width="35" height="35" viewBox="0 0 35 35" fill="none" xmlns="http://www.w3.org/2000/svg">
<g id="&#240;&#159;&#166;&#134; icon &#34;day sunny&#34;">
<path id="Vector" d="M0 17.4835C0 17.0884 0.131827 16.7427 0.411959 16.4628C0.69209 16.1994 1.03814 16.0677 1.40066 16.0677H4.76224C5.14124 16.0677 5.45433 16.1994 5.71799 16.4793C5.96516 16.7592 6.09699 17.0884 6.09699 17.4835C6.09699 17.8786 5.98164 18.2079 5.73446 18.4878C5.48729 18.7676 5.15772 18.8993 4.77872 18.8993H1.41714C1.03814 18.8993 0.708569 18.7676 0.428437 18.4878C0.148305 18.2079 0 17.8786 0 17.4835ZM4.71281 28.8923C4.71281 28.5136 4.84463 28.1844 5.09181 27.8881L7.51412 25.5339C7.7613 25.2705 8.09087 25.1552 8.48635 25.1552C8.88183 25.1552 9.21139 25.2869 9.47505 25.5339C9.7387 25.7808 9.87053 26.0936 9.87053 26.4722C9.87053 26.8674 9.7387 27.2295 9.47505 27.5259L7.13512 29.8636C6.45951 30.3904 5.7839 30.3904 5.10829 29.8636C4.84463 29.6002 4.71281 29.2709 4.71281 28.8923ZM4.71281 6.10771C4.71281 5.72907 4.84463 5.39981 5.09181 5.10348C5.42137 4.82361 5.76742 4.69191 6.14642 4.69191C6.50895 4.69191 6.83851 4.82361 7.11864 5.08702L9.47505 7.50706C9.7387 7.754 9.87053 8.08325 9.87053 8.47836C9.87053 8.87347 9.7387 9.20273 9.47505 9.46613C9.21139 9.72954 8.88183 9.86124 8.48635 9.86124C8.09087 9.86124 7.7613 9.72954 7.51412 9.46613L5.10829 7.11195C4.84463 6.84854 4.71281 6.50282 4.71281 6.10771ZM8.91478 17.4835C8.91478 15.9525 9.29378 14.5202 10.0683 13.2032C10.8427 11.8862 11.8809 10.8325 13.2156 10.0588C14.5504 9.28504 15.9675 8.9064 17.5 8.9064C18.6535 8.9064 19.7575 9.13688 20.8286 9.59784C21.8832 10.0588 22.806 10.6679 23.564 11.4417C24.3385 12.2154 24.9482 13.1209 25.3931 14.1745C25.838 15.2281 26.0687 16.3476 26.0687 17.5C26.0687 19.0475 25.6897 20.4798 24.9153 21.7968C24.1408 23.1138 23.1026 24.151 21.7844 24.9247C20.4661 25.6985 19.0325 26.0771 17.4835 26.0771C15.9346 26.0771 14.5009 25.6985 13.1827 24.9247C11.8644 24.151 10.8263 23.1138 10.0518 21.7968C9.31026 20.4633 8.91478 19.031 8.91478 17.4835ZM11.7161 17.4835C11.7161 19.0969 12.2764 20.4633 13.4134 21.5992C14.5339 22.7352 15.9016 23.3114 17.5165 23.3114C19.1314 23.3114 20.4991 22.7352 21.6361 21.5992C22.7731 20.4633 23.3498 19.0969 23.3498 17.4835C23.3498 15.9031 22.7731 14.5532 21.6361 13.4172C20.4991 12.2977 19.1314 11.738 17.5165 11.738C15.9181 11.738 14.5504 12.2977 13.4298 13.4172C12.2764 14.5532 11.7161 15.9031 11.7161 17.4835ZM16.0993 30.2916C16.0993 29.8965 16.2312 29.5673 16.5113 29.3039C16.7914 29.0405 17.121 28.9087 17.5 28.9087C17.8955 28.9087 18.2415 29.0405 18.5052 29.3039C18.7688 29.5673 18.9007 29.8965 18.9007 30.2916V33.5677C18.9007 33.9628 18.7688 34.3086 18.4887 34.5884C18.2086 34.8683 17.879 35 17.5 35C17.121 35 16.775 34.8683 16.5113 34.5884C16.2312 34.3086 16.0993 33.9628 16.0993 33.5677V30.2916ZM16.0993 4.77422V1.4158C16.0993 1.03716 16.2312 0.707903 16.5113 0.428034C16.7914 0.148166 17.121 0 17.5165 0C17.912 0 18.225 0.131703 18.5052 0.411571C18.7853 0.691439 18.9171 1.0207 18.9171 1.39934V4.77422C18.9171 5.15287 18.7853 5.46566 18.5052 5.72907C18.225 5.99247 17.8955 6.10771 17.5165 6.10771C17.1375 6.10771 16.7914 5.97601 16.5278 5.72907C16.2641 5.48213 16.0993 5.15287 16.0993 4.77422ZM25.1954 26.4722C25.1954 26.0936 25.3272 25.7808 25.5744 25.5503C25.8216 25.2869 26.1347 25.1717 26.4972 25.1717C26.8927 25.1717 27.2222 25.3034 27.4859 25.5503L29.8917 27.9045C30.1554 28.1844 30.2872 28.5301 30.2872 28.9087C30.2872 29.2874 30.1554 29.6166 29.8917 29.8801C29.2326 30.3904 28.5734 30.3904 27.9143 29.8801L25.5744 27.5423C25.3272 27.246 25.1954 26.9003 25.1954 26.4722ZM25.1954 8.49483C25.1954 8.08325 25.3272 7.754 25.5744 7.52352L27.9143 5.10348C28.1944 4.84008 28.524 4.70837 28.8865 4.70837C29.282 4.70837 29.6116 4.84008 29.8752 5.11994C30.1554 5.39981 30.2872 5.72907 30.2872 6.10771C30.2872 6.51929 30.1554 6.865 29.8917 7.12841L27.4859 9.4826C27.1893 9.746 26.8597 9.8777 26.4972 9.8777C26.1182 9.8777 25.8216 9.746 25.5744 9.4826C25.3272 9.21919 25.1954 8.88993 25.1954 8.49483ZM28.9195 17.4835C28.9195 17.0884 29.0513 16.7592 29.315 16.4628C29.5786 16.1994 29.8917 16.0677 30.2542 16.0677H33.5829C33.9619 16.0677 34.2914 16.2159 34.5716 16.4958C34.8517 16.7756 35 17.1049 35 17.4835C35 17.8622 34.8517 18.1914 34.5716 18.4713C34.2914 18.7512 33.9619 18.8829 33.5829 18.8829H30.2542C29.8752 18.8829 29.5457 18.7512 29.2985 18.4713C29.0513 18.1914 28.9195 17.8786 28.9195 17.4835Z" fill="black"/>
</g>
</svg>
