<svg width="28" height="28" viewBox="0 0 28 28" fill="none" xmlns="http://www.w3.org/2000/svg">
<g id="&#240;&#159;&#166;&#134; icon &#34;time 4&#34;">
<path id="Vector" d="M0 14.0249C0 11.4885 0.634103 9.13854 1.88988 6.98757C3.14565 4.83659 4.84902 3.13321 7 1.87744C9.15098 0.621669 11.4885 0 14.0124 0C15.9023 0 17.7176 0.373002 19.4458 1.10657C21.1741 1.84014 22.6536 2.84725 23.9094 4.09059C25.1652 5.33393 26.1599 6.82593 26.8934 8.56661C27.627 10.3073 28 12.1101 28 14.0249C28 15.9147 27.627 17.73 26.8934 19.4583C26.1599 21.1865 25.1528 22.6785 23.9094 23.9218C22.6661 25.1652 21.1741 26.1599 19.4458 26.8934C17.7176 27.627 15.9147 28 14.0124 28C12.1101 28 10.2824 27.627 8.55418 26.8934C6.82593 26.1599 5.33393 25.1528 4.07815 23.9094C2.82238 22.6661 1.84014 21.1741 1.09414 19.4583C0.348135 17.7425 0 15.9272 0 14.0249ZM3.08348 14.0249C3.08348 16.9716 4.15275 19.5329 6.30373 21.7087C8.45471 23.8597 11.016 24.929 14.0124 24.929C15.9769 24.929 17.8046 24.444 19.4707 23.4618C21.1368 22.4796 22.4796 21.1616 23.4618 19.4831C24.4441 17.8046 24.9414 15.9893 24.9414 14.0249C24.9414 12.0604 24.4441 10.2327 23.4618 8.55417C22.4796 6.87567 21.1492 5.54529 19.4707 4.56306C17.7922 3.58082 15.9769 3.09591 14.0124 3.09591C12.048 3.09591 10.2203 3.58082 8.55418 4.56306C6.8881 5.54529 5.54529 6.87567 4.55062 8.55417C3.55595 10.2327 3.08348 12.0604 3.08348 14.0249ZM12.9307 14.0249V5.74423C12.9307 5.45826 13.0302 5.20959 13.2291 5.01066C13.4281 4.81172 13.6767 4.71226 13.9627 4.71226C14.2487 4.71226 14.4973 4.81172 14.6963 5.01066C14.8952 5.20959 14.9947 5.45826 14.9947 5.74423V13.3908L19.4583 15.9893C19.7069 16.1385 19.8561 16.3499 19.9307 16.6234C20.0053 16.897 19.968 17.1581 19.8188 17.3943C19.6199 17.7425 19.3215 17.9165 18.9236 17.9165C18.7123 17.9165 18.5382 17.8668 18.4014 17.7673L13.6519 14.9947C13.4405 14.9325 13.2664 14.8082 13.1297 14.6341C12.9929 14.46 12.9307 14.2611 12.9307 14.0249Z" fill="black"/>
</g>
</svg>
